# xmcd
#
# Track frame offsets:
#	150
#	14505
#	25794
#	42195
#	55427
#	67843
#	83813
#	99776
#	114373
#	125423
#	142834
#	160153
#	174085
#	189565
#	210465
#	226934
#	235623
#
# Disc length: 3334
#
# Revision: 3
# Processed by: cddbd v1.5.1PL0 Copyright (c) Steve Scherf et al.
# Submitted via: audiograbber 1.80.04
# Normalized: r2:DSETVAR1
#
DISCID=c70d0411
DTITLE=Various Artist - The Very Best Of Country Volume 5
DYEAR=1996
DGENRE=Country
TTITLE0=Eddie Rabbit - I Love A Rainy Night
TTITLE1=Roy Orbison - Blue Bayou
TTITLE2=Johnny Cash - A Boy Named Sue
TTITLE3=Dobie Grey - Loving Arms
TTITLE4=Jim Reeves - I Love You Because
TTITLE5=Dolly Parton - Heartbreaker
TTITLE6=Kris Kristofferson - Who's To Bless And Who's To Blame
TTITLE7=Bellamy Brothers - Dancing Cowboys
TTITLE8=Conway Twitty - Hello Darlin'
TTITLE9=Audrey Landers - Honeymoon In Trinidad
TTITLE10=W Nelson,  R Charles - Seven Spanish Angels
TTITLE11=Emmy Lou Harris - Sweet Dreams
TTITLE12=Willie Nelson - Mama Don't Let Your Babies Grow Up To Be Cowboys
TTITLE13=Alabama - She And I
TTITLE14=Ronnie Milsap - Any Day Now
TTITLE15=Webb Pierce - I Ain't Never
TTITLE16=Don Williams - She's In Love With A Rodeo Man
EXTD=
EXTT0=
EXTT1=
EXTT2=
EXTT3=
EXTT4=
EXTT5=
EXTT6=
EXTT7=
EXTT8=
EXTT9=
EXTT10=
EXTT11=
EXTT12=
EXTT13=
EXTT14=
EXTT15=
EXTT16=
PLAYORDER=
